<?xml version="1.0" encoding="UTF-8" standalone="no"?>
<!-- Created with Inkscape (http://www.inkscape.org/) -->

<svg
   xmlns:dc="http://purl.org/dc/elements/1.1/"
   xmlns:cc="http://creativecommons.org/ns#"
   xmlns:rdf="http://www.w3.org/1999/02/22-rdf-syntax-ns#"
   xmlns:svg="http://www.w3.org/2000/svg"
   xmlns="http://www.w3.org/2000/svg"
   xmlns:xlink="http://www.w3.org/1999/xlink"
   xmlns:sodipodi="http://sodipodi.sourceforge.net/DTD/sodipodi-0.dtd"
   xmlns:inkscape="http://www.inkscape.org/namespaces/inkscape"
   width="200"
   height="200"
   viewBox="0 0 52.916666 52.916668"
   version="1.1"
   id="svg8"
   inkscape:version="0.92.3 (2405546, 2018-03-11)"
   sodipodi:docname="icon-locked.svg">
  <defs
     id="defs2">
    <clipPath
       id="aq">
      <path
         id="path1555"
         d="m314.41 433.39h77.529v84.745h-77.529z" />
    </clipPath>
    <clipPath
       id="ap">
      <path
         id="path1558"
         d="m82.97641,6.8186h27.02305a.5,.5 0 0,1 .5.5v41.42081a.5,.5 0 0,1 -.5.5h-27.02305a.5,.5 0 0,1 -.5-.5v-41.42081a.5,.5 0 0,1 .5-.5" />
    </clipPath>
    <clipPath
       id="ao">
      <path
         id="path1561"
         d="m-71.17928-20.77557h39.04283a.5,.5 0 0,1 .5.5v16.61717a.5,.5 0 0,1 -.5.5h-39.04283a.5,.5 0 0,1 -.5-.5v-16.61717a.5,.5 0 0,1 .5-.5"
         transform="matrix(-.99982,.01872,-.01872,-.99982,0,0)" />
    </clipPath>
    <clipPath
       id="an">
      <path
         id="path1564"
         d="m-24.72237,49.82375h29.66136a.5,.5 0 0,1 .5.5v35.80953a.5,.5 0 0,1 -.5.5h-29.66136a.5,.5 0 0,1 -.5-.5v-35.80953a.5,.5 0 0,1 .5-.5"
         transform="matrix(-.00601,-.99998,.99998,-.00601,0,0)" />
    </clipPath>
    <clipPath
       id="am">
      <path
         id="path1567"
         d="m21.1423,16.7394h29.35714a.5,.5 0 0,1 .5.5v26.85714a.5,.5 0 0,1 -.5.5h-29.35714a.5,.5 0 0,1 -.5-.5v-26.85714a.5,.5 0 0,1 .5-.5" />
    </clipPath>
    <linearGradient
       spreadMethod="reflect"
       gradientUnits="userSpaceOnUse"
       x2="96.185"
       x1="63.672"
       id="af">
      <stop
         id="stop1570"
         offset="0"
         stop-color="#4f6a2d" />
      <stop
         id="stop1572"
         offset=".75"
         stop-color="#8cb24c" />
      <stop
         id="stop1574"
         offset="1"
         stop-color="#c1e677" />
    </linearGradient>
    <linearGradient
       id="v">
      <stop
         id="stop1577"
         offset="0" />
      <stop
         id="stop1579"
         offset="1"
         stop-color="#fff" />
    </linearGradient>
    <linearGradient
       id="d">
      <stop
         id="stop1582"
         offset="0"
         stop-color="#fff" />
      <stop
         id="stop1584"
         offset="1"
         stop-opacity="0"
         stop-color="#fff" />
    </linearGradient>
    <linearGradient
       id="q">
      <stop
         id="stop1587"
         offset="0"
         stop-color="#9cbf42" />
      <stop
         id="stop1589"
         offset="1"
         stop-opacity="0"
         stop-color="#daf0a5" />
    </linearGradient>
    <linearGradient
       spreadMethod="reflect"
       gradientUnits="userSpaceOnUse"
       x2="96.185"
       x1="63.672"
       id="ag">
      <stop
         id="stop1592"
         offset="0"
         stop-color="#d65f19" />
      <stop
         id="stop1594"
         offset=".75"
         stop-color="#eca35c" />
      <stop
         id="stop1596"
         offset="1"
         stop-color="#f0bc7b" />
    </linearGradient>
    <linearGradient
       id="p">
      <stop
         id="stop1599"
         offset="0"
         stop-color="#ff8529" />
      <stop
         id="stop1601"
         offset="1"
         stop-opacity="0"
         stop-color="#c48242" />
    </linearGradient>
    <linearGradient
       spreadMethod="reflect"
       gradientUnits="userSpaceOnUse"
       x2="96.185"
       x1="63.672"
       id="ae">
      <stop
         id="stop1604"
         offset="0"
         stop-color="#b2b2b2" />
      <stop
         id="stop1606"
         offset=".75"
         stop-color="#d2d2d2" />
      <stop
         id="stop1608"
         offset="1"
         stop-color="#f7f7f7" />
    </linearGradient>
    <linearGradient
       id="n">
      <stop
         id="stop1611"
         offset="0"
         stop-color="#fff" />
      <stop
         id="stop1613"
         offset="1"
         stop-opacity="0"
         stop-color="#878787" />
    </linearGradient>
    <linearGradient
       spreadMethod="reflect"
       gradientUnits="userSpaceOnUse"
       x2="96.185"
       x1="63.672"
       id="al">
      <stop
         id="stop1616"
         offset="0"
         stop-color="#399d9e" />
      <stop
         id="stop1618"
         offset=".75"
         stop-color="#4eb6b8" />
      <stop
         id="stop1620"
         offset="1"
         stop-color="#77dfe6" />
    </linearGradient>
    <linearGradient
       id="o">
      <stop
         id="stop1623"
         offset="0"
         stop-color="#5ee1e4" />
      <stop
         id="stop1625"
         offset="1"
         stop-opacity="0"
         stop-color="#4fb7b7" />
    </linearGradient>
    <linearGradient
       xlink:href="#d"
       gradientUnits="userSpaceOnUse"
       y2="30.538"
       y1="5.9674"
       x2="0"
       id="e" />
    <linearGradient
       xlink:href="#d"
       gradientUnits="userSpaceOnUse"
       gradientTransform="matrix(1.6375,0,0,2.4742,-0.0513,-0.01283)"
       y2="6.0918"
       y1="11.17"
       x2="39.724"
       x1="38.363"
       id="f" />
    <linearGradient
       xlink:href="#d"
       gradientUnits="userSpaceOnUse"
       y2="18.82"
       y1="23.756"
       x2="0"
       id="g" />
    <linearGradient
       xlink:href="#d"
       gradientUnits="userSpaceOnUse"
       y2="-28.041"
       y1="45.727"
       x2="0"
       id="h" />
    <linearGradient
       xlink:href="#d"
       gradientUnits="userSpaceOnUse"
       y2="-21.499"
       y1="46.27"
       x2="0"
       id="i" />
    <linearGradient
       spreadMethod="reflect"
       xlink:href="#v"
       gradientUnits="userSpaceOnUse"
       y2="85.348"
       y1="83.634"
       x2="0"
       id="j" />
    <linearGradient
       spreadMethod="reflect"
       xlink:href="#v"
       gradientUnits="userSpaceOnUse"
       gradientTransform="matrix(2.2188,0,0,1.826,-0.0513,-1.0128)"
       y2="45.888"
       y1="44.011"
       x2="24.606"
       x1="24.261"
       id="k" />
    <linearGradient
       spreadMethod="reflect"
       xlink:href="#v"
       gradientUnits="userSpaceOnUse"
       gradientTransform="matrix(2.2188,0,0,1.826,-0.0513,-1.0128)"
       y2="62.78"
       y1="60.434"
       x2="17.425"
       x1="17.682"
       id="l" />
    <linearGradient
       xlink:href="#d"
       gradientUnits="userSpaceOnUse"
       y2="81.122"
       y1="124.4"
       x2="0"
       id="m" />
    <radialGradient
       xlink:href="#q"
       gradientUnits="userSpaceOnUse"
       gradientTransform="matrix(2.3666,0,0,1.7265,-0.40436,-0.01283)"
       r="6.0679"
       cy="8.9814"
       cx="21.595"
       id="r" />
    <radialGradient
       xlink:href="#q"
       gradientUnits="userSpaceOnUse"
       gradientTransform="matrix(-2.3666,0,0,1.7265,129.12,-0.11293)"
       r="6.0679"
       cy="8.9814"
       cx="21.595"
       id="s" />
    <radialGradient
       xlink:href="#q"
       gradientUnits="userSpaceOnUse"
       gradientTransform="matrix(3.085,0,0,2.0529,-15.985,-3.1493)"
       r="6.0679"
       cy="8.9814"
       cx="21.595"
       id="t" />
    <radialGradient
       xlink:href="#q"
       gradientUnits="userSpaceOnUse"
       gradientTransform="matrix(-2.8463,0,0,2.0879,139.52,-3.5862)"
       r="6.0679"
       cy="8.9814"
       cx="21.595"
       id="u" />
    <radialGradient
       xlink:href="#d"
       gradientUnits="userSpaceOnUse"
       gradientTransform="matrix(0.6214,0,0,1.8821,2.3888,-9.4094)"
       r="15.157"
       cy="22.546"
       cx="20.361"
       id="a" />
    <radialGradient
       xlink:href="#d"
       gradientUnits="userSpaceOnUse"
       gradientTransform="matrix(0.50007,0,0,1.6752,5.003,-5.1082)"
       r="15.157"
       cy="22.546"
       cx="20.361"
       id="b" />
    <radialGradient
       xlink:href="#d"
       gradientUnits="userSpaceOnUse"
       gradientTransform="matrix(0.43334,0,0,1.435,6.4099,-0.11314)"
       r="15.157"
       cy="22.546"
       cx="20.361"
       id="c" />
    <radialGradient
       xlink:href="#p"
       gradientUnits="userSpaceOnUse"
       gradientTransform="matrix(-2.8463,0,0,2.0879,139.52,-3.5862)"
       r="6.0679"
       cy="8.9814"
       cx="21.595"
       id="x" />
    <radialGradient
       xlink:href="#p"
       gradientUnits="userSpaceOnUse"
       gradientTransform="matrix(3.085,0,0,2.0529,-15.985,-3.1493)"
       r="6.0679"
       cy="8.9814"
       cx="21.595"
       id="z" />
    <radialGradient
       xlink:href="#p"
       gradientUnits="userSpaceOnUse"
       gradientTransform="matrix(-2.3666,0,0,1.7265,129.12,-0.11293)"
       r="6.0679"
       cy="8.9814"
       cx="21.595"
       id="aa" />
    <radialGradient
       xlink:href="#p"
       gradientUnits="userSpaceOnUse"
       gradientTransform="matrix(2.3666,0,0,1.7265,-0.40436,-0.01283)"
       r="6.0679"
       cy="8.9814"
       cx="21.595"
       id="ad" />
    <radialGradient
       xlink:href="#n"
       gradientUnits="userSpaceOnUse"
       gradientTransform="matrix(-2.8463,0,0,2.0879,139.52,-3.5862)"
       r="6.0679"
       cy="8.9814"
       cx="21.595"
       id="w" />
    <radialGradient
       xlink:href="#n"
       gradientUnits="userSpaceOnUse"
       gradientTransform="matrix(3.085,0,0,2.0529,-15.985,-3.1493)"
       r="6.0679"
       cy="8.9814"
       cx="21.595"
       id="y" />
    <radialGradient
       xlink:href="#n"
       gradientUnits="userSpaceOnUse"
       gradientTransform="matrix(-2.3666,0,0,1.7265,129.12,-0.11293)"
       r="6.0679"
       cy="8.9814"
       cx="21.595"
       id="ab" />
    <radialGradient
       xlink:href="#n"
       gradientUnits="userSpaceOnUse"
       gradientTransform="matrix(2.3666,0,0,1.7265,-0.40436,-0.01283)"
       r="6.0679"
       cy="8.9814"
       cx="21.595"
       id="ac" />
    <radialGradient
       xlink:href="#o"
       gradientUnits="userSpaceOnUse"
       gradientTransform="matrix(2.3666,0,0,1.7265,-0.40436,-0.01283)"
       r="6.0679"
       cy="8.9814"
       cx="21.595"
       id="ah" />
    <radialGradient
       xlink:href="#o"
       gradientUnits="userSpaceOnUse"
       gradientTransform="matrix(-2.3666,0,0,1.7265,129.12,-0.11293)"
       r="6.0679"
       cy="8.9814"
       cx="21.595"
       id="ai" />
    <radialGradient
       xlink:href="#o"
       gradientUnits="userSpaceOnUse"
       gradientTransform="matrix(3.085,0,0,2.0529,-15.985,-3.1493)"
       r="6.0679"
       cy="8.9814"
       cx="21.595"
       id="aj" />
    <radialGradient
       xlink:href="#o"
       gradientUnits="userSpaceOnUse"
       gradientTransform="matrix(-2.8463,0,0,2.0879,139.52,-3.5862)"
       r="6.0679"
       cy="8.9814"
       cx="21.595"
       id="ak" />
    <linearGradient
       inkscape:collect="always"
       xlink:href="#d"
       id="linearGradient2548"
       gradientUnits="userSpaceOnUse"
       y1="5.9674"
       x2="0"
       y2="30.538" />
    <linearGradient
       inkscape:collect="always"
       xlink:href="#d"
       id="linearGradient2550"
       gradientUnits="userSpaceOnUse"
       gradientTransform="matrix(1.6375,0,0,2.4742,-0.0513,-0.01283)"
       x1="38.363"
       y1="11.17"
       x2="39.724"
       y2="6.0918" />
    <linearGradient
       inkscape:collect="always"
       xlink:href="#d"
       id="linearGradient2552"
       gradientUnits="userSpaceOnUse"
       y1="23.756"
       x2="0"
       y2="18.82" />
    <linearGradient
       inkscape:collect="always"
       xlink:href="#d"
       id="linearGradient2554"
       gradientUnits="userSpaceOnUse"
       y1="45.727"
       x2="0"
       y2="-28.041" />
    <linearGradient
       inkscape:collect="always"
       xlink:href="#d"
       id="linearGradient2556"
       gradientUnits="userSpaceOnUse"
       y1="46.27"
       x2="0"
       y2="-21.499" />
    <linearGradient
       inkscape:collect="always"
       xlink:href="#v"
       id="linearGradient2558"
       gradientUnits="userSpaceOnUse"
       y1="83.634"
       x2="0"
       y2="85.348"
       spreadMethod="reflect" />
    <linearGradient
       inkscape:collect="always"
       xlink:href="#v"
       id="linearGradient2560"
       gradientUnits="userSpaceOnUse"
       gradientTransform="matrix(2.2188,0,0,1.826,-0.0513,-1.0128)"
       x1="24.261"
       y1="44.011"
       x2="24.606"
       y2="45.888"
       spreadMethod="reflect" />
    <linearGradient
       inkscape:collect="always"
       xlink:href="#v"
       id="linearGradient2562"
       gradientUnits="userSpaceOnUse"
       gradientTransform="matrix(2.2188,0,0,1.826,-0.0513,-1.0128)"
       x1="17.682"
       y1="60.434"
       x2="17.425"
       y2="62.78"
       spreadMethod="reflect" />
    <radialGradient
       inkscape:collect="always"
       xlink:href="#d"
       id="radialGradient2564"
       gradientUnits="userSpaceOnUse"
       gradientTransform="matrix(0.43334,0,0,1.435,6.4099,-0.11314)"
       cx="20.361"
       cy="22.546"
       r="15.157" />
    <radialGradient
       inkscape:collect="always"
       xlink:href="#d"
       id="radialGradient2566"
       gradientUnits="userSpaceOnUse"
       gradientTransform="matrix(0.50007,0,0,1.6752,5.003,-5.1082)"
       cx="20.361"
       cy="22.546"
       r="15.157" />
    <radialGradient
       inkscape:collect="always"
       xlink:href="#d"
       id="radialGradient2568"
       gradientUnits="userSpaceOnUse"
       gradientTransform="matrix(0.6214,0,0,1.8821,2.3888,-9.4094)"
       cx="20.361"
       cy="22.546"
       r="15.157" />
    <radialGradient
       inkscape:collect="always"
       xlink:href="#d"
       id="radialGradient2570"
       gradientUnits="userSpaceOnUse"
       gradientTransform="matrix(0.43334,0,0,1.435,6.4099,-0.11314)"
       cx="20.361"
       cy="22.546"
       r="15.157" />
    <radialGradient
       inkscape:collect="always"
       xlink:href="#d"
       id="radialGradient2572"
       gradientUnits="userSpaceOnUse"
       gradientTransform="matrix(0.50007,0,0,1.6752,5.003,-5.1082)"
       cx="20.361"
       cy="22.546"
       r="15.157" />
    <radialGradient
       inkscape:collect="always"
       xlink:href="#d"
       id="radialGradient2574"
       gradientUnits="userSpaceOnUse"
       gradientTransform="matrix(0.6214,0,0,1.8821,2.3888,-9.4094)"
       cx="20.361"
       cy="22.546"
       r="15.157" />
    <linearGradient
       inkscape:collect="always"
       xlink:href="#d"
       id="linearGradient2576"
       gradientUnits="userSpaceOnUse"
       y1="124.4"
       x2="0"
       y2="81.122" />
  </defs>
  <sodipodi:namedview
     id="base"
     pagecolor="#ffffff"
     bordercolor="#666666"
     borderopacity="1.0"
     inkscape:pageopacity="0.0"
     inkscape:pageshadow="2"
     inkscape:zoom="2.8"
     inkscape:cx="169.39767"
     inkscape:cy="82.542091"
     inkscape:document-units="mm"
     inkscape:current-layer="layer1"
     showgrid="false"
     units="px"
     inkscape:window-width="2444"
     inkscape:window-height="1411"
     inkscape:window-x="0"
     inkscape:window-y="0"
     inkscape:window-maximized="1" />
  <metadata
     id="metadata5">
    <rdf:RDF>
      <cc:Work
         rdf:about="">
        <dc:format>image/svg+xml</dc:format>
        <dc:type
           rdf:resource="http://purl.org/dc/dcmitype/StillImage" />
        <dc:title></dc:title>
      </cc:Work>
    </rdf:RDF>
  </metadata>
  <g
     inkscape:label="Layer 1"
     inkscape:groupmode="layer"
     id="layer1"
     transform="translate(0,-244.08332)">
    <circle
       style="color:#000000;clip-rule:nonzero;display:inline;overflow:visible;visibility:visible;opacity:1;isolation:auto;mix-blend-mode:normal;color-interpolation:sRGB;color-interpolation-filters:linearRGB;solid-color:#000000;solid-opacity:1;fill:none;fill-opacity:1;fill-rule:nonzero;stroke:#800000;stroke-width:1.05833333;stroke-linecap:butt;stroke-linejoin:round;stroke-miterlimit:4;stroke-dasharray:none;stroke-dashoffset:0;stroke-opacity:1;marker:none;paint-order:normal;color-rendering:auto;image-rendering:auto;shape-rendering:auto;text-rendering:auto;enable-background:accumulate"
       id="path815"
       cx="26.647322"
       cy="270.63614"
       r="24.190477" />
    <path
       style="opacity:0.02999998;fill-rule:evenodd"
       inkscape:connector-curvature="0"
       transform="matrix(0.26458333,0,0,0.26458333,72.870058,265.12311)"
       d="m 24.60261,57.35913 h 79.51304 a 0.5,0.5 0 0 1 0.5,0.5 v 65.25911 a 0.5,0.5 0 0 1 -0.5,0.5 H 24.60261 a 0.5,0.5 0 0 1 -0.5,-0.5 V 57.85913 a 0.5,0.5 0 0 1 0.5,-0.5"
       clip-path="url(#aq)"
       id="path1842" />
    <g
       style="fill-rule:evenodd"
       transform="matrix(0.24205253,-5.5963653e-7,5.5963653e-7,0.24205253,10.879992,255.33835)"
       id="g1902">
      <path
         style="fill:#282828"
         inkscape:connector-curvature="0"
         d="M 64.359,2 C 44.287,2 28.128,18.159 28.128,38.231 V 78.488 H 38.192 V 38.231 c 0,-14.496 11.67,-26.167 26.167,-26.167 14.497,0 26.167,11.67 26.167,26.167 V 78.488 H 100.59 V 38.231 C 100.59,18.159 84.431,2 64.359,2 Z"
         id="path1844" />
      <path
         style="opacity:0.65;fill:url(#linearGradient2548)"
         inkscape:connector-curvature="0"
         d="m 64.359,4.6292 c -18.957,0 -34.218,16.307 -34.218,34.909 v 37.528 c 0,14.089 8.7764,26.05 21.26,31.047 -8.9449,-4.0729 -15.222,-12.8 -15.222,-23.147 v -47.404 c 0,-14.225 11.67,-26.621 26.167,-26.621 h 4.0256 c 14.496,0 26.167,12.396 26.167,26.621 v 47.404 c 0,10.347 -6.2771,19.074 -15.222,23.147 12.484,-4.9976 21.26,-16.958 21.26,-31.047 v -37.528 c 0,-18.602 -15.261,-34.909 -34.218,-34.909 z"
         id="path1846" />
      <path
         style="opacity:0.5;fill:url(#linearGradient2550)"
         inkscape:connector-curvature="0"
         d="m 64.359,2.8539 c -19.51,0 -35.217,15.601 -35.217,34.98 v 39.095 c 0,14.677 9.0325,27.137 21.881,32.344 C 41.817,105.03 35.357,95.9389 35.357,85.1599 v -49.383 c 0,-14.819 12.011,-29.082 26.93,-29.082 h 4.1431 c 14.919,0 26.93,14.263 26.93,29.082 v 49.383 c 0,10.779 -6.4603,19.87 -15.666,24.113 12.848,-5.2063 21.881,-17.666 21.881,-32.344 v -39.095 c 0,-19.379 -15.707,-34.98 -35.217,-34.98 z"
         id="path1848" />
      <path
         style="opacity:0.8;fill:url(#ah)"
         inkscape:connector-curvature="0"
         d="m 49.471,12.003 c -5.4384,3.4052 -8.4987,9.2101 -7.8995,11.145 0.64564,2.085 4.4667,-7.2336 15.283,-10.119 8.3406,-2.2253 -4.9e-4,-5.6487 -7.3837,-1.0257 z"
         id="path1850" />
      <path
         style="opacity:0.8;fill:url(#ai)"
         inkscape:connector-curvature="0"
         d="m 79.248,11.903 c 5.4384,3.4052 8.4987,9.2101 7.8995,11.145 -0.64564,2.085 -4.4667,-7.2336 -15.283,-10.119 -8.3406,-2.2253 4.9e-4,-5.6487 7.3837,-1.0257 z"
         id="path1852" />
      <path
         style="opacity:0.5;fill:url(#linearGradient2552)"
         inkscape:connector-curvature="0"
         d="m 64.359,6.2794 c -18.957,0 -34.218,12.995 -34.218,31.951 v 38.244 c 0,14.358 8.7764,26.546 21.26,31.639 -8.9449,-4.1505 -15.222,-13.044 -15.222,-23.588 v -48.308 c 0,-14.496 11.67,-26.182 26.167,-26.182 h 4.0256 c 14.496,0 26.167,11.686 26.167,26.182 v 48.308 c 0,10.544 -6.2771,19.437 -15.222,23.588 12.484,-5.0929 21.26,-17.281 21.26,-31.639 v -38.244 c 0,-18.957 -15.261,-31.951 -34.218,-31.951 z"
         id="path1854" />
      <path
         style="opacity:0.8;fill:url(#linearGradient2554)"
         inkscape:connector-curvature="0"
         d="m 64.359,4.0389 c -26.762,0 -32.937,23.315 -32.937,33.86 0,31.634 2.0586,31.634 2.0586,0 0,-23.199 16.463,-32.355 30.879,-32.355 14.416,0 30.879,10.103 30.879,32.355 0,31.634 2.0586,31.634 2.0586,0 0,-10.545 -6.1758,-33.86 -32.937,-33.86 z"
         id="path1856" />
      <path
         style="opacity:0.6;fill:url(#linearGradient2556)"
         inkscape:connector-curvature="0"
         d="m 64.359,7.0913 c -26.167,0 -32.205,22.3 -32.205,31.987 0,29.062 2.0128,29.062 2.0128,0 0,-21.312 16.097,-30.605 30.192,-30.605 14.095,0 30.192,10.162 30.192,30.605 0,29.062 2.0128,29.062 2.0128,0 0,-9.6873 -6.0385,-31.987 -32.205,-31.987 z"
         id="path1858" />
      <path
         style="opacity:0.8;fill:#ffffff"
         inkscape:connector-curvature="0"
         d="m 36.98,16.488 c -2.8752,5.2482 3.0271,1.9311 4.398,0.27381 3.8539,-4.659 10.368,-8.0363 16.085,-9.1385 4.7947,-0.92436 5.5258,-2.7757 1.5775,-3.0822 -7.8721,-0.61105 -19.304,6.9156 -22.061,11.947 z"
         id="path1860" />
      <path
         style="opacity:0.6;fill:#ffffff"
         inkscape:connector-curvature="0"
         d="m 32.623,25.156 c 0.30478,2.5648 5.2635,-5.7978 9.1677,-9.7237 4.7683,-4.7948 11.996,-8.1508 15.473,-8.5942 6.1984,-0.79048 3.2564,-3.828 -0.62868,-3.0606 -14.12,2.7892 -24.79,14.838 -24.012,21.379 z"
         id="path1862" />
      <path
         style="opacity:0.8;fill:#ffffff"
         inkscape:connector-curvature="0"
         d="m 91.58,16.452 c 2.8946,5.2376 -3.0199,1.9423 -4.3969,0.29 C 83.3121,12.0972 76.7861,8.7439 71.0641,7.6628 66.266,6.7561 64.9157,4.9107 68.8627,4.5897 c 7.8698,-0.64003 19.942,6.8412 22.717,11.862 z"
         id="path1864" />
      <path
         style="opacity:0.6;fill:#ffffff"
         inkscape:connector-curvature="0"
         d="m 95.798,24.925 c -0.29533,2.5659 -5.2848,-5.7784 -9.2035,-9.6899 -4.786,-4.7772 -12.026,-8.1066 -15.505,-8.5372 -6.2013,-0.76765 -3.2924,-3.6952 0.61676,-3.0622 14.142,2.3014 24.845,14.746 24.092,21.289 z"
         id="path1866" />
      <path
         style="opacity:0.4;fill:url(#aj)"
         inkscape:connector-curvature="0"
         d="M 49.032,11.138 C 41.9425,15.187 37.953,22.089 38.734,24.39 39.57566,26.8691 44.5567,15.789 58.657,12.358 69.53,9.7121 58.65636,5.6414 49.0317,11.1384 Z"
         id="path1868" />
      <path
         style="opacity:0.4;fill:url(#ak)"
         inkscape:connector-curvature="0"
         d="m 79.54,10.945 c 6.5408,4.1181 10.221,11.138 9.5008,13.478 -0.77652,2.5214 -5.3721,-8.7479 -18.381,-12.238 -10.031,-2.6911 5.9e-4,-6.8312 8.8804,-1.2405 z"
         id="path1870" />
      <path
         style="fill:url(#al)"
         inkscape:connector-curvature="0"
         d="m 24.60261,57.35913 h 79.51304 a 0.5,0.5 0 0 1 0.5,0.5 v 65.25911 a 0.5,0.5 0 0 1 -0.5,0.5 H 24.60261 a 0.5,0.5 0 0 1 -0.5,-0.5 V 57.85913 a 0.5,0.5 0 0 1 0.5,-0.5"
         id="path1872" />
      <path
         style="opacity:0.02999998;fill:url(#linearGradient2558)"
         inkscape:connector-curvature="0"
         d="m 24.60261,57.35913 h 79.51304 a 0.5,0.5 0 0 1 0.5,0.5 v 65.25911 a 0.5,0.5 0 0 1 -0.5,0.5 H 24.60261 a 0.5,0.5 0 0 1 -0.5,-0.5 V 57.85913 a 0.5,0.5 0 0 1 0.5,-0.5"
         id="path1874" />
      <path
         style="opacity:0.02999998;fill:url(#linearGradient2560)"
         inkscape:connector-curvature="0"
         d="m 24.60261,57.35913 h 79.51304 a 0.5,0.5 0 0 1 0.5,0.5 v 65.25911 a 0.5,0.5 0 0 1 -0.5,0.5 H 24.60261 a 0.5,0.5 0 0 1 -0.5,-0.5 V 57.85913 a 0.5,0.5 0 0 1 0.5,-0.5"
         id="path1876" />
      <path
         style="opacity:0.02999998;fill:url(#linearGradient2562)"
         inkscape:connector-curvature="0"
         d="m 24.60261,57.35913 h 79.51304 a 0.5,0.5 0 0 1 0.5,0.5 v 65.25911 a 0.5,0.5 0 0 1 -0.5,0.5 H 24.60261 a 0.5,0.5 0 0 1 -0.5,-0.5 V 57.85913 a 0.5,0.5 0 0 1 0.5,-0.5"
         id="path1878" />
      <path
         style="opacity:0.5;fill:#ffffff"
         inkscape:connector-curvature="0"
         d="m 26.619,57.359 c 1.8101,2.1216 18.145,3.7862 38.655,3.7862 20.229,0 36.293,-1.6472 38.484,-3.7271 -0.0308,-0.0032 -0.0255,-0.05916 -0.0572,-0.05916 h -77.082 z"
         id="path1880" />
      <g
         transform="matrix(1.7195,0,0,1.9816,4.4209,1.4876)"
         id="g1888">
        <path
           style="opacity:0.40280002;fill:url(#radialGradient2564)"
           inkscape:connector-curvature="0"
           d="m 13.971,30.767 c -0.43954,2.6295 -0.93088,19.309 0.69644,22.88 1.5919,3.4933 1.3929,-16.667 5.273,-19.84 3.9212,-3.2069 -5.5549,-5.52 -5.9695,-3.04 z"
           id="path1882" />
        <path
           style="opacity:0.3;fill:url(#radialGradient2566)"
           inkscape:connector-curvature="0"
           d="m 13.729,30.942 c -0.50723,3.0697 -1.0742,22.541 0.80369,26.71 1.837,4.0782 1.6074,-19.457 6.0851,-23.161 4.525,-3.7437 -6.4104,-6.4441 -6.8888,-3.5489 z"
           id="path1884" />
        <path
           style="opacity:0.2;fill:url(#radialGradient2568)"
           inkscape:connector-curvature="0"
           d="m 13.232,31.092 c -0.6303,3.4488 -1.3349,25.325 0.99868,30.009 2.2827,4.5818 1.9974,-21.86 7.5614,-26.022 5.6229,-4.206 -7.9657,-7.2399 -8.5601,-3.9872 z"
           id="path1886" />
      </g>
      <g
         transform="matrix(-1.7195,0,0,1.9816,124.3,1.4876)"
         id="g1896">
        <path
           style="opacity:0.40280002;fill:url(#radialGradient2570)"
           inkscape:connector-curvature="0"
           d="m 13.971,30.767 c -0.43954,2.6295 -0.93088,19.309 0.69644,22.88 1.5919,3.4933 1.3929,-16.667 5.273,-19.84 3.9212,-3.2069 -5.5549,-5.52 -5.9695,-3.04 z"
           id="path1890" />
        <path
           style="opacity:0.3;fill:url(#radialGradient2572)"
           inkscape:connector-curvature="0"
           d="m 13.729,30.942 c -0.50723,3.0697 -1.0742,22.541 0.80369,26.71 1.837,4.0782 1.6074,-19.457 6.0851,-23.161 4.525,-3.7437 -6.4104,-6.4441 -6.8888,-3.5489 z"
           id="path1892" />
        <path
           style="opacity:0.2;fill:url(#radialGradient2574)"
           inkscape:connector-curvature="0"
           d="m 13.232,31.092 c -0.6303,3.4488 -1.3349,25.325 0.99868,30.009 2.2827,4.5818 1.9974,-21.86 7.5614,-26.022 5.6229,-4.206 -7.9657,-7.2399 -8.5601,-3.9872 z"
           id="path1894" />
      </g>
      <path
         style="opacity:0.25;fill:url(#linearGradient2576)"
         inkscape:connector-curvature="0"
         d="m 103.12,114.72 v 7.8872 c 0,0.55755 -0.43214,1.0064 -0.96891,1.0064 h -75.575 c -0.53678,0 -0.96891,-0.44886 -0.96891,-1.0064 v -28.015 c 0,29.516 77.513,-20.879 77.513,20.128 z"
         id="path1898" />
      <path
         style="opacity:0.5"
         inkscape:connector-curvature="0"
         d="m 25.647,123.62 c 1.8101,-2.1216 18.145,-3.7862 38.655,-3.7862 20.229,0 36.293,1.6472 38.484,3.7271 -0.0308,0.003 -0.0255,0.0592 -0.0572,0.0592 h -77.082 z"
         id="path1900" />
    </g>
  </g>
</svg>
